<svg width="120" height="31" viewBox="0 0 120 31" fill="none" xmlns="http://www.w3.org/2000/svg">
<rect width="120" height="31" rx="15.5" fill="#EE575E"/>
<path d="M17.456 21V9.16H21.36C23.792 9.16 25.648 9.88 25.648 12.088C25.648 13.176 25.056 14.28 24.048 14.648V14.712C25.312 15.016 26.256 15.928 26.256 17.512C26.256 19.896 24.272 21 21.68 21H17.456ZM19.824 13.976H21.2C22.704 13.976 23.344 13.384 23.344 12.424C23.344 11.384 22.656 10.984 21.232 10.984H19.824V13.976ZM19.824 19.176H21.472C23.072 19.176 23.952 18.6 23.952 17.384C23.952 16.232 23.104 15.736 21.472 15.736H19.824V19.176ZM31.9716 21V9.16H34.3396V13.912H35.8276L37.4116 11.096C38.3556 9.416 39.1556 8.952 40.4196 8.952C40.7236 8.952 41.0596 8.984 41.2996 9.08L40.8996 11.208C40.7236 11.16 40.5316 11.16 40.4196 11.16C39.8756 11.16 39.5876 11.352 39.0436 12.344L37.6676 14.712L41.6036 21H39.1076L35.8276 15.816H34.3396V21H31.9716ZM47.5038 21.224C44.3518 21.224 42.2078 18.888 42.2078 15.032C42.2078 11.176 44.3518 8.952 47.5038 8.952C50.6398 8.952 52.7838 11.192 52.7838 15.032C52.7838 18.888 50.6398 21.224 47.5038 21.224ZM47.5038 19.176C49.2638 19.176 50.3837 17.56 50.3837 15.032C50.3837 12.504 49.2638 10.984 47.5038 10.984C45.7278 10.984 44.6238 12.504 44.6238 15.032C44.6238 17.56 45.7278 19.176 47.5038 19.176ZM55.1123 21V9.16H59.0003C61.6083 9.16 63.6243 10.072 63.6243 12.888C63.6243 15.592 61.6083 16.792 59.0643 16.792H57.4803V21H55.1123ZM57.4803 14.92H58.9043C60.5363 14.92 61.3203 14.232 61.3203 12.888C61.3203 11.496 60.4563 11.048 58.8243 11.048H57.4803V14.92ZM68.2733 21.224C66.6893 21.224 65.1853 20.744 63.9533 19.576L65.2013 17.944C66.1453 18.824 67.1053 19.176 68.2573 19.176C69.5533 19.176 70.5293 18.536 70.5293 17.384C70.5293 16.232 69.6973 15.736 68.0813 15.736H66.5613V13.976H67.7133C69.3293 13.976 69.9533 13.416 69.9533 12.44C69.9533 11.432 69.1693 10.984 68.0973 10.984C67.1213 10.984 66.3373 11.336 65.5693 11.944L64.3693 10.392C65.3613 9.464 66.7213 8.952 68.1613 8.952C70.7693 8.952 72.2413 10.12 72.2413 12.088C72.2413 13.24 71.6973 14.232 70.6733 14.68V14.76C71.9053 15.048 72.8333 16.072 72.8333 17.56C72.8333 19.944 70.8333 21.224 68.2733 21.224ZM74.9248 21V9.16H77.2448V13.88C77.2448 15.224 77.0688 16.808 76.9568 18.04H77.0208L78.2208 15.496L81.6768 9.16H84.1888V21H81.8368V16.264C81.8368 14.888 82.0288 13.4 82.1408 12.136H82.0768L80.8768 14.648L77.4208 21H74.9248ZM87.0966 21V9.16H89.4646V13.832H93.9446V9.16H96.2966V21H93.9446V15.88H89.4646V21H87.0966ZM100.502 21.224C99.846 21.224 99.414 21.128 99.078 21.016L99.526 18.952C99.718 19.032 99.91 19.096 100.374 19.096C100.95 19.096 101.366 18.904 101.606 18.44L101.798 17.992L97.782 9.16H100.262L101.894 13.112L102.854 15.8H102.934L103.83 13.112L105.302 9.16H107.686L103.942 18.456C103.27 20.168 102.246 21.224 100.502 21.224Z" fill="white"/>
</svg>
